# xmcd
#
# Track frame offsets:
#	150
#	12093
#	25062
#	41750
#	55754
#	66827
#	78668
#	91126
#	108651
#	118402
#
# Disc length: 1764 seconds
#
# Revision: 0
# Processed by: cddbd v1.4PL0 Copyright (c) Steve Scherf et al.
# Submitted via: dBpowerAMP V4.0
#
DISCID=8006e20a
DTITLE=Jack Green - The Best Of The Best
DYEAR=1900
DGENRE=Country
TTITLE0=All The Time
TTITLE1=I Need Somebody Bad
TTITLE2=Last Letter
TTITLE3=Statue Of A Fool
TTITLE4=There Goes My Everything
TTITLE5=Until My Dreams Come True
TTITLE6=Wanting You But Never Having You
TTITLE7=What Locks The Door
TTITLE8=Wish I Didn't Have To Miss You
TTITLE9=You Are My Treasure
EXTD=
EXTT0=
EXTT1=
EXTT2=
EXTT3=
EXTT4=
EXTT5=
EXTT6=
EXTT7=
EXTT8=
EXTT9=
PLAYORDER=
